# xmcd
#
# Track frame offsets:
#	150
#	17328
#	42393
#	60785
#	89685
#	106350
#	130081
#	148858
#	176855
#	197757
#	222534
#	242563
#
# Disc length: 3482 seconds
#
# Revision: 0
# Processed by: cddbd v1.5.2PL0 Copyright (c) Steve Scherf et al.
# Submitted via: dBpowerAMP V4.0
#
DISCID=ab0d980c
DTITLE=Chico banks - Stray kitty kat
DYEAR=2008
DGENRE=Blues
TTITLE0=Sacrifice
TTITLE1=5 long years
TTITLE2=Travlin' man
TTITLE3=Why are you so mean to me
TTITLE4=I'm leaving home
TTITLE5=Stray kitty kat
TTITLE6=Bad luck
TTITLE7=Mercy, mercy, mercy
TTITLE8=My babe
TTITLE9=Revelation
TTITLE10=Big leg woman
TTITLE11=Martel
EXTD=치코 최고!!
EXTT0=
EXTT1=
EXTT2=
EXTT3=
EXTT4=
EXTT5=
EXTT6=
EXTT7=
EXTT8=
EXTT9=
EXTT10=
EXTT11=
PLAYORDER=
